<svg width="170" height="90" viewBox="0 0 170 90" fill="none" xmlns="http://www.w3.org/2000/svg">
<rect x="0.5" y="0.5" width="169" height="89" rx="3.5" stroke="#2196F3"/>
<path d="M57.4017 36.8306H57.399C55.1367 36.8306 53.3027 38.6177 53.3027 40.8223V40.8249C53.3027 43.0295 55.1367 44.8167 57.399 44.8167H57.4017C59.664 44.8167 61.498 43.0295 61.498 40.8249V40.8223C61.498 38.6177 59.664 36.8306 57.4017 36.8306Z" fill="#2196F3"/>
<path d="M87.6363 35.5545C87.6299 32.4924 86.379 29.5575 84.1574 27.3921C81.9358 25.2266 78.9245 24.007 75.7823 24V24C72.6392 24.0056 69.6264 25.2246 67.4037 27.3902C65.1809 29.5558 63.9293 32.4915 63.9229 35.5545V52.4402C63.9229 52.4402 87.6336 49.8667 87.6363 35.5571V35.5545Z" fill="#2196F3"/>
<path d="M45 57.9823C45.0057 60.1129 45.8766 62.1547 47.4223 63.6615C48.968 65.1683 51.0629 66.0177 53.2492 66.0239C55.4351 66.0177 57.5296 65.1687 59.0752 63.6625C60.6209 62.1562 61.492 60.1151 61.4985 57.9849V46.2356C61.4985 46.2356 45 48.0276 45 57.9823ZM53.2492 60.0874C52.822 60.0874 52.4043 59.964 52.0491 59.7326C51.6938 59.5013 51.417 59.1726 51.2535 58.7879C51.09 58.4032 51.0472 57.98 51.1305 57.5716C51.2139 57.1632 51.4196 56.7881 51.7217 56.4937C52.0239 56.1993 52.4088 55.9988 52.8278 55.9176C53.2468 55.8364 53.6812 55.8781 54.0759 56.0374C54.4706 56.1967 54.808 56.4665 55.0454 56.8127C55.2827 57.1589 55.4094 57.5659 55.4094 57.9823C55.4105 58.2594 55.3554 58.534 55.2473 58.7903C55.1392 59.0466 54.9803 59.2796 54.7796 59.476C54.5789 59.6723 54.3404 59.828 54.0778 59.9343C53.8152 60.0406 53.5336 60.0953 53.2492 60.0953V60.0874Z" fill="#2196F3"/>
<path d="M70.0889 58.7812H68.4014V60.5244H67.5225V56.2588H70.2998V56.9707H68.4014V58.0723H70.0889V58.7812ZM74.3135 58.4883C74.3135 58.9082 74.2393 59.2764 74.0908 59.5928C73.9424 59.9092 73.7295 60.1533 73.4521 60.3252C73.1768 60.4971 72.8604 60.583 72.5029 60.583C72.1494 60.583 71.834 60.498 71.5566 60.3281C71.2793 60.1582 71.0645 59.916 70.9121 59.6016C70.7598 59.2852 70.6826 58.9219 70.6807 58.5117V58.3008C70.6807 57.8809 70.7559 57.5117 70.9062 57.1934C71.0586 56.873 71.2725 56.6279 71.5479 56.458C71.8252 56.2861 72.1416 56.2002 72.4971 56.2002C72.8525 56.2002 73.168 56.2861 73.4434 56.458C73.7207 56.6279 73.9346 56.873 74.085 57.1934C74.2373 57.5117 74.3135 57.8799 74.3135 58.2979V58.4883ZM73.4229 58.2949C73.4229 57.8477 73.3428 57.5078 73.1826 57.2754C73.0225 57.043 72.7939 56.9268 72.4971 56.9268C72.2021 56.9268 71.9746 57.042 71.8145 57.2725C71.6543 57.501 71.5732 57.8369 71.5713 58.2803V58.4883C71.5713 58.9238 71.6514 59.2617 71.8115 59.502C71.9717 59.7422 72.2021 59.8623 72.5029 59.8623C72.7979 59.8623 73.0244 59.7471 73.1826 59.5166C73.3408 59.2842 73.4209 58.9463 73.4229 58.5029V58.2949ZM77.1641 59.4053C77.1641 59.2393 77.1055 59.1123 76.9883 59.0244C76.8711 58.9346 76.6602 58.8408 76.3555 58.7432C76.0508 58.6436 75.8096 58.5459 75.6318 58.4502C75.1475 58.1885 74.9053 57.8359 74.9053 57.3926C74.9053 57.1621 74.9697 56.957 75.0986 56.7773C75.2295 56.5957 75.416 56.4541 75.6582 56.3525C75.9023 56.251 76.1758 56.2002 76.4785 56.2002C76.7832 56.2002 77.0547 56.2559 77.293 56.3672C77.5312 56.4766 77.7158 56.6318 77.8467 56.833C77.9795 57.0342 78.0459 57.2627 78.0459 57.5186H77.167C77.167 57.3232 77.1055 57.1719 76.9824 57.0645C76.8594 56.9551 76.6865 56.9004 76.4639 56.9004C76.249 56.9004 76.082 56.9463 75.9629 57.0381C75.8438 57.1279 75.7842 57.2471 75.7842 57.3955C75.7842 57.5342 75.8535 57.6504 75.9922 57.7441C76.1328 57.8379 76.3389 57.9258 76.6104 58.0078C77.1104 58.1582 77.4746 58.3447 77.7031 58.5674C77.9316 58.79 78.0459 59.0674 78.0459 59.3994C78.0459 59.7686 77.9062 60.0586 77.627 60.2695C77.3477 60.4785 76.9717 60.583 76.499 60.583C76.1709 60.583 75.8721 60.5234 75.6025 60.4043C75.333 60.2832 75.127 60.1182 74.9844 59.9092C74.8438 59.7002 74.7734 59.458 74.7734 59.1826H75.6553C75.6553 59.6533 75.9365 59.8887 76.499 59.8887C76.708 59.8887 76.8711 59.8467 76.9883 59.7627C77.1055 59.6768 77.1641 59.5576 77.1641 59.4053ZM81.8545 56.9707H80.5479V60.5244H79.6689V56.9707H78.3799V56.2588H81.8545V56.9707ZM84.9248 58.6758H83.2373V59.8184H85.2178V60.5244H82.3584V56.2588H85.2119V56.9707H83.2373V57.9873H84.9248V58.6758ZM87.3125 58.9629H86.6123V60.5244H85.7334V56.2588H87.3184C87.8223 56.2588 88.2109 56.3711 88.4844 56.5957C88.7578 56.8203 88.8945 57.1377 88.8945 57.5479C88.8945 57.8389 88.8311 58.082 88.7041 58.2773C88.5791 58.4707 88.3887 58.625 88.1328 58.7402L89.0557 60.4834V60.5244H88.1123L87.3125 58.9629ZM86.6123 58.251H87.3213C87.542 58.251 87.7129 58.1953 87.834 58.084C87.9551 57.9707 88.0156 57.8154 88.0156 57.6182C88.0156 57.417 87.958 57.2588 87.8428 57.1436C87.7295 57.0283 87.5547 56.9707 87.3184 56.9707H86.6123V58.251ZM91.9385 59.0215V60.5244H91.0596V56.2588H92.7236C93.0439 56.2588 93.3252 56.3174 93.5674 56.4346C93.8115 56.5518 93.999 56.7188 94.1299 56.9355C94.2607 57.1504 94.3262 57.3955 94.3262 57.6709C94.3262 58.0889 94.1826 58.4189 93.8955 58.6611C93.6104 58.9014 93.2148 59.0215 92.709 59.0215H91.9385ZM91.9385 58.3096H92.7236C92.9561 58.3096 93.1328 58.2549 93.2539 58.1455C93.377 58.0361 93.4385 57.8799 93.4385 57.6768C93.4385 57.4678 93.377 57.2988 93.2539 57.1699C93.1309 57.041 92.9609 56.9746 92.7441 56.9707H91.9385V58.3096ZM97.499 58.6758H95.8115V59.8184H97.792V60.5244H94.9326V56.2588H97.7861V56.9707H95.8115V57.9873H97.499V58.6758ZM101.577 56.9707H100.271V60.5244H99.3916V56.9707H98.1025V56.2588H101.577V56.9707ZM104.647 58.6758H102.96V59.8184H104.94V60.5244H102.081V56.2588H104.935V56.9707H102.96V57.9873H104.647V58.6758ZM107.035 58.9629H106.335V60.5244H105.456V56.2588H107.041C107.545 56.2588 107.934 56.3711 108.207 56.5957C108.48 56.8203 108.617 57.1377 108.617 57.5479C108.617 57.8389 108.554 58.082 108.427 58.2773C108.302 58.4707 108.111 58.625 107.855 58.7402L108.778 60.4834V60.5244H107.835L107.035 58.9629ZM106.335 58.251H107.044C107.265 58.251 107.436 58.1953 107.557 58.084C107.678 57.9707 107.738 57.8154 107.738 57.6182C107.738 57.417 107.681 57.2588 107.565 57.1436C107.452 57.0283 107.277 56.9707 107.041 56.9707H106.335V58.251ZM111.5 59.4053C111.5 59.2393 111.441 59.1123 111.324 59.0244C111.207 58.9346 110.996 58.8408 110.691 58.7432C110.387 58.6436 110.146 58.5459 109.968 58.4502C109.483 58.1885 109.241 57.8359 109.241 57.3926C109.241 57.1621 109.306 56.957 109.435 56.7773C109.565 56.5957 109.752 56.4541 109.994 56.3525C110.238 56.251 110.512 56.2002 110.814 56.2002C111.119 56.2002 111.391 56.2559 111.629 56.3672C111.867 56.4766 112.052 56.6318 112.183 56.833C112.315 57.0342 112.382 57.2627 112.382 57.5186H111.503C111.503 57.3232 111.441 57.1719 111.318 57.0645C111.195 56.9551 111.022 56.9004 110.8 56.9004C110.585 56.9004 110.418 56.9463 110.299 57.0381C110.18 57.1279 110.12 57.2471 110.12 57.3955C110.12 57.5342 110.189 57.6504 110.328 57.7441C110.469 57.8379 110.675 57.9258 110.946 58.0078C111.446 58.1582 111.811 58.3447 112.039 58.5674C112.268 58.79 112.382 59.0674 112.382 59.3994C112.382 59.7686 112.242 60.0586 111.963 60.2695C111.684 60.4785 111.308 60.583 110.835 60.583C110.507 60.583 110.208 60.5234 109.938 60.4043C109.669 60.2832 109.463 60.1182 109.32 59.9092C109.18 59.7002 109.109 59.458 109.109 59.1826H109.991C109.991 59.6533 110.272 59.8887 110.835 59.8887C111.044 59.8887 111.207 59.8467 111.324 59.7627C111.441 59.6768 111.5 59.5576 111.5 59.4053Z" fill="#2196F3"/>
</svg>
